HIERARCHY
ROOT Hips
{
	OFFSET 0.000000 0.000000 0.000000
	CHANNELS 6 Xposition Yposition Zposition Yrotation Xrotation Zrotation
	JOINT Chest
	{
		OFFSET 0.000000 -0.009281 11.569106
		CHANNELS 3 Yrotation Xrotation Zrotation
		JOINT Chest2
		{
			OFFSET -0.000000 0.016865 9.269641
			CHANNELS 3 Yrotation Xrotation Zrotation
			JOINT Chest3
			{
				OFFSET -0.000000 0.000001 8.374491
				CHANNELS 3 Yrotation Xrotation Zrotation
				JOINT Chest4
				{
					OFFSET -0.000000 0.000001 8.374493
					CHANNELS 3 Yrotation Xrotation Zrotation
					JOINT Neck
					{
						OFFSET -0.000000 0.000002 12.152554
						CHANNELS 3 Yrotation Xrotation Zrotation
						JOINT Head
						{
							OFFSET -0.000000 0.040101 7.802319
							CHANNELS 3 Yrotation Xrotation Zrotation
							End Site
							{
								OFFSET -0.000000 0.020947 14.853096
							}
						}
					}
					JOINT RightCollar
					{
						OFFSET 2.894404 0.000001 6.791374
						CHANNELS 3 Yrotation Xrotation Zrotation
						JOINT RightShoulder
						{
							OFFSET 13.574684 0.000001 0.000000
							CHANNELS 3 Yrotation Xrotation Zrotation
							JOINT RightElbow
							{
								OFFSET 23.923903 0.000002 0.000000
								CHANNELS 3 Yrotation Xrotation Zrotation
								JOINT RightWrist
								{
									OFFSET 19.846718 0.012767 0.000000
									CHANNELS 3 Yrotation Xrotation Zrotation
									End Site
									{
										OFFSET 14.973145 0.000001 0.000000
									}
								}
							}
						}
					}
					JOINT LeftCollar
					{
						OFFSET -2.894404 0.000001 6.791374
						CHANNELS 3 Yrotation Xrotation Zrotation
						JOINT LeftShoulder
						{
							OFFSET -13.574684 -0.000001 0.000000
							CHANNELS 3 Yrotation Xrotation Zrotation
							JOINT LeftElbow
							{
								OFFSET -23.923903 -0.000002 0.000000
								CHANNELS 3 Yrotation Xrotation Zrotation
								JOINT LeftWrist
								{
									OFFSET -19.846718 0.012763 0.000000
									CHANNELS 3 Yrotation Xrotation Zrotation
									End Site
									{
										OFFSET -14.973145 -0.000001 0.000000
									}
								}
							}
						}
					}
				}
			}
		}
	}
	JOINT RightHip
	{
		OFFSET 9.469263 0.004643 0.045487
		CHANNELS 3 Yrotation Xrotation Zrotation
		JOINT RightKnee
		{
			OFFSET 0.000000 0.002661 -40.478676
			CHANNELS 3 Yrotation Xrotation Zrotation
			JOINT RightAnkle
			{
				OFFSET 0.000000 0.049106 -35.224068
				CHANNELS 3 Yrotation Xrotation Zrotation
				JOINT RightToe
				{
					OFFSET -0.000001 12.539529 -6.151390
					CHANNELS 3 Yrotation Xrotation Zrotation
					End Site
					{
						OFFSET -0.000001 5.044994 -1.291870
					}
				}
			}
		}
	}
	JOINT LeftHip
	{
		OFFSET -9.469263 0.004641 0.045487
		CHANNELS 3 Yrotation Xrotation Zrotation
		JOINT LeftKnee
		{
			OFFSET 0.000000 0.002661 -40.478676
			CHANNELS 3 Yrotation Xrotation Zrotation
			JOINT LeftAnkle
			{
				OFFSET 0.000000 0.049106 -35.224068
				CHANNELS 3 Yrotation Xrotation Zrotation
				JOINT LeftToe
				{
					OFFSET -0.000001 12.539529 -6.151390
					CHANNELS 3 Yrotation Xrotation Zrotation
					End Site
					{
						OFFSET -0.000001 5.044994 -1.291870
					}
				}
			}
		}
	}
}
MOTION
Frames: 14
Frame Time: 0.016667
11.414207 5.988575 83.025940 -8.393663 -5.610575 -115.771064 -1.367695 -5.100207 2.985897 -0.555350 -2.271352 1.360479 -0.555351 -2.271351 1.360478 -0.411402 -1.704762 1.018160 7.526048 -17.168242 -14.565052 8.905548 4.386293 -24.311597 7.827100 -0.010745 -7.190305 66.836919 -2.847228 27.600601 -7.086542 8.059802 -9.285761 -21.608663 -5.858275 6.515947 -9.910799 -3.525968 -14.596669 -76.263597 -15.606356 -22.145908 2.302866 15.284824 0.349318 49.999908 17.182406 -8.287800 0.910049 -10.056490 -1.686723 -0.383521 -6.816443 4.949491 0.227673 6.829147 0.215036 0.023519 -0.016836 0.005253 1.642757 -13.263654 -1.465335 -0.853278 -3.151024 4.178492 0.502694 6.526961 1.623537 0.036986 0.001211 -0.001102 
11.440552 6.009961 83.030876 -8.331857 -5.630007 -115.805775 -1.316077 -5.106336 2.785873 -0.536281 -2.273824 1.271938 -0.536280 -2.273825 1.271937 -0.397425 -1.706495 0.951833 7.379468 -16.970445 -14.670775 8.574799 4.723901 -24.566529 7.593480 0.258148 -6.913466 66.320727 -1.561248 28.568181 -7.738574 12.237330 -9.556124 -22.563848 -4.299141 5.581067 -10.006940 -3.251109 -14.660004 -75.950044 -16.859391 -22.112596 0.876884 15.366652 -1.131209 49.699960 17.867321 -5.455961 0.923525 -10.054213 -1.631337 -0.374550 -6.738215 4.890718 0.259371 6.790554 0.248578 0.015855 -0.014089 0.003922 1.660421 -13.276151 -1.390210 -0.852674 -3.056154 4.174789 0.493371 6.493944 1.601517 0.053531 0.001439 0.001381 
11.466594 6.026345 83.036552 -8.268677 -5.651654 -115.852699 -1.274399 -5.108454 2.597109 -0.521686 -2.274787 1.188462 -0.521686 -2.274787 1.188459 -0.386787 -1.707114 0.889287 7.243480 -16.777286 -14.785099 8.260234 5.052908 -24.834873 7.382821 0.572779 -6.694054 65.911517 0.047511 29.655968 -8.318510 16.154939 -9.722670 -23.512306 -2.478277 4.566565 -10.042564 -3.016821 -14.708329 -75.621143 -17.897546 -22.302221 -0.794119 15.913253 -2.590085 49.262162 18.150531 -3.391581 0.945050 -10.056888 -1.559515 -0.374127 -6.647956 4.843730 0.292386 6.742137 0.265731 0.008913 -0.009216 0.004286 1.684671 -13.301046 -1.310089 -0.858158 -2.940652 4.165037 0.482740 6.451783 1.579664 0.068871 0.003124 0.002669 
11.495650 6.039881 83.041031 -8.193378 -5.674575 -115.917449 -1.223839 -5.087724 2.410663 -0.501679 -2.264839 1.106092 -0.501679 -2.264839 1.106090 -0.372110 -1.699545 0.827601 7.106148 -16.600100 -14.904245 7.942838 5.351018 -25.113241 7.131242 0.852713 -6.510666 65.635331 1.841498 30.908877 -8.930689 19.835161 -9.850448 -24.335020 -0.695151 3.640127 -10.134903 -2.715727 -14.731366 -75.341802 -18.802481 -22.564165 -2.434772 16.401043 -3.976540 48.816626 18.731340 -1.267870 0.970082 -10.051975 -1.493257 -0.374985 -6.554814 4.811942 0.326510 6.695281 0.291917 0.002026 -0.007064 0.003919 1.711065 -13.325717 -1.226872 -0.860284 -2.815717 4.172993 0.467512 6.412622 1.543690 0.081530 0.002268 0.002392 
11.528221 6.052499 83.044098 -8.107996 -5.695800 -115.991119 -1.184057 -5.039559 2.241499 -0.485861 -2.242549 1.031346 -0.485861 -2.242549 1.031348 -0.360565 -1.682738 0.771632 6.986421 -16.446455 -15.040445 7.654545 5.606217 -25.416923 6.887415 1.147903 -6.368065 65.369029 3.531373 32.225307 -9.599339 23.759095 -9.970639 -25.330583 1.158396 3.097742 -10.210083 -2.455397 -14.781786 -75.031745 -19.675205 -22.896227 -4.035783 16.896180 -5.440803 48.498527 19.670690 1.129568 0.991122 -10.044169 -1.437330 -0.368323 -6.451112 4.786564 0.360026 6.645325 0.332659 -0.005024 -0.006905 0.002845 1.738753 -13.345117 -1.169431 -0.867160 -2.689850 4.200691 0.455720 6.378828 1.522704 0.092159 -0.000094 0.001760 
11.562776 6.066591 83.047501 -8.016678 -5.712375 -116.076661 -1.151215 -4.975969 2.079939 -0.473807 -2.214142 0.960260 -0.473807 -2.214142 0.960262 -0.351832 -1.661357 0.718391 6.876465 -16.312761 -15.182650 7.384389 5.824752 -25.728062 6.656731 1.428203 -6.187145 65.106743 5.144296 33.580010 -10.250397 27.870355 -9.992827 -26.712721 3.450902 2.757469 -10.289752 -2.220282 -14.824043 -74.686486 -20.594598 -23.257590 -5.755677 17.798684 -7.057024 48.292057 20.774896 3.333447 1.003829 -10.027233 -1.371164 -0.356923 -6.350753 4.760965 0.395889 6.596674 0.377695 -0.012933 -0.007627 0.000234 1.757220 -13.358207 -1.125978 -0.869449 -2.566616 4.250132 0.442604 6.344475 1.520053 0.101189 0.001177 0.002505 
11.599430 6.080628 83.051735 -7.920116 -5.724815 -116.166601 -1.118403 -4.882175 1.935729 -0.462200 -2.172562 0.897328 -0.462199 -2.172562 0.897329 -0.343418 -1.630105 0.671273 6.773118 -16.207959 -15.343194 7.123937 5.988787 -26.069920 6.432522 1.567279 -6.013352 64.865316 6.779537 35.039509 -10.801164 31.635449 -9.822714 -28.321835 5.963100 2.276738 -10.376639 -2.014258 -14.869605 -74.299815 -21.459339 -23.676062 -7.735855 19.036166 -8.752701 48.291773 21.574811 5.038477 1.017372 -10.008065 -1.289436 -0.349529 -6.243028 4.703738 0.437078 6.542934 0.435990 -0.019477 -0.007061 0.000233 1.769615 -13.368831 -1.093962 -0.861308 -2.437081 4.304366 0.423438 6.303125 1.509665 0.108448 0.005817 0.002377 
11.637824 6.091340 83.055992 -7.825139 -5.737353 -116.254000 -1.073378 -4.781333 1.790538 -0.445258 -2.127479 0.834471 -0.445258 -2.127480 0.834470 -0.331000 -1.596222 0.624230 6.659427 -16.114554 -15.497774 6.847792 6.129686 -26.404379 6.191811 1.709530 -5.824804 64.610072 8.414691 36.519727 -11.269991 34.576545 -9.566817 -29.368980 8.025655 1.404616 -10.462982 -1.832092 -14.869021 -73.837022 -22.259691 -24.200620 -9.842569 20.107959 -10.442885 48.425447 22.079449 6.310760 1.036306 -10.000250 -1.210446 -0.350390 -6.120133 4.638162 0.481420 6.484877 0.502377 -0.023781 -0.007570 0.000393 1.780327 -13.383288 -1.076950 -0.854080 -2.307944 4.358763 0.407558 6.262816 1.539689 0.114398 0.011495 0.002780 
11.680662 6.100137 83.060043 -7.731008 -5.749213 -116.339801 -1.035020 -4.660590 1.655159 -0.430653 -2.073311 0.776212 -0.430654 -2.073311 0.776210 -0.320321 -1.555534 0.580631 6.548973 -16.047420 -15.646124 6.583544 6.222367 -26.724806 5.960571 1.873264 -5.662265 64.313082 10.063883 38.017376 -11.487588 37.054302 -9.272066 -29.949160 9.624179 0.304864 -10.523165 -1.712903 -14.854587 -73.345454 -23.022676 -24.822280 -11.740845 20.695029 -11.997183 48.490880 22.679312 7.437997 1.054876 -10.002570 -1.146688 -0.352708 -5.984789 4.589716 0.524309 6.424198 0.564879 -0.026468 -0.008620 -0.000461 1.794369 -13.399281 -1.064597 -0.846572 -2.181590 4.411787 0.388410 6.224934 1.552685 0.118656 0.017361 0.002778 
11.728975 6.107661 83.063255 -7.637333 -5.760851 -116.425697 -1.019460 -4.542532 1.544539 -0.424887 -2.020064 0.727917 -0.424887 -2.020064 0.727917 -0.316226 -1.515557 0.544476 6.457712 -15.989678 -15.792796 6.356502 6.300189 -27.034804 5.750510 2.109401 -5.559187 64.068069 11.617141 39.460906 -11.385276 39.746254 -8.750603 -30.552218 11.067599 -0.769113 -10.549750 -1.592635 -14.897623 -72.851815 -23.787450 -25.475069 -13.500241 21.129624 -13.558941 48.662147 23.482752 8.576402 1.067710 -10.009672 -1.103360 -0.350412 -5.849058 4.566310 0.563866 6.367343 0.630655 -0.027979 -0.009871 -0.002485 1.803648 -13.413388 -1.039918 -0.833371 -2.055742 4.446314 0.370023 6.185567 1.581352 0.121547 0.021465 0.002872 
11.775815 6.118424 83.067451 -7.547012 -5.769886 -116.510487 -1.007058 -4.401579 1.437715 -0.419775 -1.957733 0.681767 -0.419775 -1.957733 0.681770 -0.312616 -1.468771 0.509932 6.365073 -15.959437 -15.930942 6.134271 6.327311 -27.327607 5.513981 2.268815 -5.488712 64.019254 13.144107 40.923782 -10.987727 42.528115 -7.894854 -31.658388 12.771247 -1.645622 -10.606480 -1.521286 -14.965382 -72.328240 -24.523825 -26.160681 -15.402295 21.886131 -15.277137 48.939255 24.216805 9.560906 1.072028 -10.008040 -1.046694 -0.339896 -5.731285 4.530429 0.600091 6.316124 0.695126 -0.029198 -0.010201 -0.005597 1.804199 -13.436038 -0.988975 -0.816560 -1.933818 4.467646 0.353962 6.155810 1.600291 0.122416 0.025002 0.004114 
11.824531 6.127053 83.072319 -7.459003 -5.781020 -116.598077 -0.996090 -4.248024 1.335588 -0.415370 -1.889371 0.637092 -0.415370 -1.889370 0.637090 -0.309529 -1.417463 0.476492 6.266906 -15.948840 -16.058442 5.908856 6.317730 -27.601155 5.301914 2.366156 -5.395040 64.133919 14.652028 42.460329 -10.450991 44.872089 -6.837767 -33.414867 14.852994 -2.262902 -10.650464 -1.491801 -15.015870 -71.774913 -25.151084 -26.899756 -17.501952 22.796282 -17.083872 49.231846 24.837792 10.415391 1.081268 -10.005821 -0.959797 -0.335612 -5.625175 4.472968 0.638832 6.271174 0.758097 -0.029801 -0.008878 -0.006099 1.811474 -13.459006 -0.918597 -0.804848 -1.809298 4.475372 0.338266 6.120444 1.594713 0.122334 0.027257 0.005180 
11.872021 6.131378 83.077484 -7.374807 -5.790315 -116.690995 -0.967880 -4.090673 1.236238 -0.404893 -1.819287 0.594417 -0.404893 -1.819287 0.594415 -0.301874 -1.364861 0.444570 6.147654 -15.949021 -16.174943 5.650390 6.285059 -27.861067 5.047826 2.454973 -5.336569 64.298301 15.970714 44.036938 -9.875543 46.678892 -5.693530 -35.599277 17.016197 -2.606139 -10.712145 -1.474062 -15.054606 -71.236619 -25.533602 -27.661959 -19.569066 23.312786 -18.756345 49.438682 25.364594 11.234572 1.100003 -10.004992 -0.864157 -0.349836 -5.521766 4.424665 0.681038 6.228663 0.797493 -0.030181 -0.008249 -0.006323 1.813095 -13.495039 -0.842045 -0.787891 -1.674133 4.483018 0.318598 6.080255 1.590980 0.122233 0.032530 0.007140 
11.920668 6.135149 83.082291 -7.291942 -5.793359 -116.784514 -0.921815 -3.939219 1.136079 -0.386744 -1.751699 0.551597 -0.386744 -1.751699 0.551599 -0.288455 -1.314125 0.412559 6.008778 -15.949014 -16.279129 5.360193 6.249700 -28.105163 4.753767 2.560011 -5.248542 64.398746 17.123129 45.599159 -9.305789 48.172143 -4.615243 -37.751446 18.919370 -2.765551 -10.804300 -1.430222 -15.062159 -70.743199 -25.714493 -28.468843 -21.393981 23.290289 -20.158070 49.598648 25.839789 12.002452 1.108987 -10.000205 -0.791549 -0.360987 -5.426148 4.416613 0.717266 6.193442 0.822629 -0.029094 -0.009640 -0.006377 1.809483 -13.523541 -0.777290 -0.769387 -1.548918 4.510450 0.296999 6.042562 1.568360 0.120318 0.038328 0.007226 
